<?xml version="1.0" encoding="utf-8"?>
<!-- Generator: Adobe Illustrator 15.0.2, SVG Export Plug-In . SVG Version: 6.00 Build 0)  -->
<!DOCTYPE svg PUBLIC "-//W3C//DTD SVG 1.1//EN" "http://www.w3.org/Graphics/SVG/1.1/DTD/svg11.dtd">
<svg version="1.1" id="LOGO" xmlns="http://www.w3.org/2000/svg" xmlns:xlink="http://www.w3.org/1999/xlink" x="0px" y="0px"
	 width="1000px" height="315.469px" viewBox="0 0 1000 315.469" enable-background="new 0 0 1000 315.469" xml:space="preserve">
<g id="THE">
	<path d="M185.294,53.084v-38.76h-21.873V10h48.924v4.324h-21.876v38.76H185.294z"/>
	<path d="M214.473,53.084V10h5.177v18.812h40.401V10h5.178v43.084h-5.178V32.915H219.65v20.169H214.473z"/>
	<path d="M273.793,53.084V10h42.958v4.324H278.97v14.363h36.361v4.102H278.97V48.76h38.066v4.325L273.793,53.084L273.793,53.084z"/>
</g>
<g id="CHICAGO">
	<path d="M60.724,176.891l2.086-2.09h15.006l2.125,2.123l2.11-2.104h3.478l1.925-1.926l2.038,2.035h13.428v-2.443l1.377-1.377
		l2.982-2.983l4.015,4.019h9.491l2.821-2.086h4.361v-7.312h6.795l7.313,7.312v-4.474h9.488c1.61-2.435,2.801-5.422,3.52-9.033
		c0.814-4.097,1.221-9.538,1.221-16.329c0-0.841,0-2.581,0-5.22h-33.835c-0.059,3.479-0.45,6.258-1.18,8.332
		c-1.741,4.714-7.66,7.27-17.759,7.66c-3.761,0.169-11.616,0.252-23.568,0.252c-6.229,0-11.278-0.14-15.149-0.42
		c-7.633-0.562-12.768-2.16-15.404-4.799c-3.2-3.254-4.798-11.165-4.798-23.733c0-11.449,0.532-18.883,1.598-22.307
		c1.516-4.882,5.472-7.912,11.87-9.091c3.085-0.56,13.325-0.842,30.721-0.842c11.279,0,18.629,0.282,22.053,0.842
		c4.992,0.787,8.052,2.61,9.175,5.472c0.728,1.795,1.178,4.208,1.347,7.239h33.417v-3.62c0-12.85-2.61-21.967-7.829-27.356
		c-2.976-3.085-6.705-5.329-11.194-6.732c-4.491-1.404-10.859-2.329-19.107-2.778c-8.024-0.39-20.482-0.589-37.37-0.589
		c-19.527,0-33.025,0.814-40.487,2.44c-7.52,1.629-13.425,4.405-17.718,8.334c-4.292,3.929-7.251,9.258-8.879,15.992
		c-1.459,5.835-2.188,15.431-2.188,28.786c0,7.351,0.195,14.337,0.589,20.956c0.393,6.848,1.542,13.077,3.45,18.688
		c2.778,8.096,8.454,13.746,16.924,17.042h27.628L60.724,176.891z"/>
	<polygon points="281.876,170.568 285.333,170.568 285.333,159.023 295.851,159.023 295.851,173.004 304.317,173.004 
		304.317,165.583 313.677,165.583 313.677,63.375 278.662,63.375 278.662,105.795 199.121,105.795 199.121,63.375 164.108,63.375 
		164.108,155.948 165.42,155.948 169.268,155.948 169.268,169.029 173.628,169.029 173.628,162.747 176.195,162.747 
		176.195,159.023 184.146,159.023 184.146,173.004 188.506,173.004 188.506,167.493 197.996,167.493 197.996,171.434 
		199.121,171.434 199.121,134.162 278.662,134.162 278.662,175.316 281.876,175.316 	"/>
	<polygon points="330.1,169.029 333.817,169.029 333.817,162.361 337.089,162.361 337.089,159.023 338.31,159.023 338.31,162.232 
		342.104,162.232 342.104,171.434 348.57,171.434 348.57,158.256 352.675,158.256 352.675,150.047 359.61,150.047 359.61,63.375 
		324.596,63.375 324.596,171.434 330.1,171.434 	"/>
	<path d="M381.526,164.417h2.947v-21.935h13.47v21.935h6.155v10.002h6.54v-6.926h2.312v-3.076h10.389v8.463h11.543v3.078h3.851
		v-3.078h7.693v3.078h3.463v1.442h3.207v-12.983h9.361v10.899h3.336v-12.955h3.335v-3.338h4.297v3.338h6.35v12.955h3.591v-7.823
		h10.132v7.217h1.412v-3.114h9.069c1.993-1.438,3.739-3.097,5.178-5.029c1.965-2.578,3.354-5.918,4.168-10.014
		c0.812-4.097,1.221-9.538,1.221-16.329c0-0.841,0-2.581,0-5.22h-33.836c-0.058,3.479-0.448,6.258-1.178,8.332
		c-1.741,4.714-7.66,7.27-17.762,7.66c-3.76,0.169-11.614,0.252-23.566,0.252c-6.229,0-11.28-0.14-15.15-0.42
		c-7.633-0.562-12.767-2.16-15.401-4.799c-3.199-3.254-4.798-11.165-4.798-23.733c0-11.449,0.53-18.883,1.599-22.307
		c1.516-4.882,5.472-7.912,11.867-9.091c3.086-0.56,13.327-0.842,30.724-0.842c11.279,0,18.628,0.282,22.053,0.842
		c4.992,0.787,8.055,2.61,9.175,5.472c0.729,1.795,1.179,4.208,1.349,7.239h33.414v-3.62c0-12.85-2.61-21.967-7.828-27.356
		c-2.974-3.085-6.706-5.329-11.195-6.732c-4.489-1.404-10.854-2.329-19.105-2.778c-8.022-0.39-20.481-0.589-37.371-0.589
		c-19.526,0-33.023,0.814-40.486,2.44c-7.52,1.629-13.424,4.405-17.716,8.334c-4.292,3.929-7.254,9.258-8.881,15.992
		c-1.458,5.835-2.188,15.431-2.188,28.786c0,7.351,0.196,14.337,0.588,20.956c0.395,6.848,1.543,13.077,3.452,18.688
		c0.156,0.455,0.377,0.855,0.553,1.295h8.678L381.526,164.417L381.526,164.417z"/>
	<polygon points="559.935,177.247 563.526,172.879 582.252,172.879 588.667,175.209 588.667,98.231 591.645,98.231 591.645,75.916 
		593.314,75.916 593.283,95.152 599.438,95.152 599.438,98.231 601.393,98.231 601.393,75.916 602.903,75.916 602.903,98.231 
		603.03,98.231 603.03,117.212 609.957,117.212 609.957,139.148 610.659,139.148 610.659,161.334 616.37,161.334 616.37,177.4 
		619.703,177.4 619.703,174.708 622.782,174.708 622.782,149.791 622.782,145.172 622.782,137.222 624.321,137.222 624.321,145.172 
		636.12,145.172 636.12,137.222 637.402,137.222 637.402,145.172 637.402,152.613 637.402,168.258 640.738,168.258 640.738,172.879 
		649.204,172.879 649.204,177.247 653.31,177.247 653.31,165.952 664.851,165.952 664.851,172.1 670.239,168.258 674.16,160.831 
		620.825,63.375 573.943,63.375 515.584,167.098 534.256,177.379 	"/>
	<path d="M744.884,164.668v5.898h2.821v-4.615h15.135V177.4h3.848v-4.521h6.156v4.521h13.854v-16.063h3.079v-11.545h3.848v11.545
		h2.562v14.621h2.055v-7.697h6.929v4.619h4.104v1.83h1.025v-6.449h5.771v-3.592h6.042c1.211-2.271,2.13-4.799,2.722-7.613
		c1.179-5.439,1.77-14.645,1.77-27.606v-15.907h-78.361v21.462h44.271c0.058,1.57,0.084,2.86,0.084,3.872
		c0,2.693-0.312,4.797-0.926,6.312c-1.572,3.984-5.695,6.34-12.372,7.069c-2.133,0.228-7.97,0.338-17.509,0.338
		c-11.481,0-20.179-0.077-26.139-0.235v12.311h9.232L744.884,164.668L744.884,164.668z"/>
	<path d="M715.748,94.77c2.804-3.477,8.218-5.219,16.243-5.219c7.068,0,15.316-0.083,24.747-0.252l12.288,0.17
		c6.957,0,11.251,0.111,12.877,0.335c4.771,0.674,7.885,2.608,9.344,5.807c0.615,1.459,0.981,3.647,1.094,6.566H826.6
		c0-8.81-0.757-15.599-2.271-20.371c-1.688-5.16-4.968-9.326-9.853-12.498c-4.881-3.17-10.999-5.092-18.347-5.765
		c-7.466-0.675-21.41-1.011-41.834-1.011c-16.104,0-29.064,0.367-38.886,1.094c-8.53,0.673-15.627,2.415-21.296,5.219
		c-7.742,3.872-12.82,11.306-15.235,22.305c-1.234,5.723-1.852,16.132-1.852,31.229c0,6.51,0.111,12.399,0.337,17.672
		c0.278,6.401,1.346,12.262,3.2,17.593c0.629,1.782,1.431,3.42,2.33,4.974h9.657v7.823h8.05v2.054h9.137v-7.824h2.311v-14.878h8.297
		c-2.464-1.329-4.35-3.185-5.609-5.614c-1.739-3.366-2.607-10.352-2.607-20.957c0-6.229,0.141-11.701,0.42-16.413
		C712.829,100.971,713.896,96.957,715.748,94.77z"/>
	<path d="M989.357,98.306c-0.447-6.454-1.935-12.346-4.461-17.677c-2.127-4.602-5.178-8.234-9.133-10.899
		c-3.958-2.666-9.188-4.589-15.694-5.767c-6.628-1.178-23.964-1.768-52.021-1.768c-16.607,0-29.316,0.421-38.131,1.262
		c-7.295,0.731-13.604,2.386-18.936,4.966c-8.868,4.266-14.396,12.291-16.581,24.073c-0.956,5.052-1.434,14.589-1.434,28.617
		c0,8.025,0.168,15.014,0.507,20.96c0.324,5.566,1.377,10.703,3.071,15.451l16.328,11.292v-9.793h6.415v10.775h24.624v2.693h4.616
		v-7.824h2.051v7.824h10.262v2.18h6.157l1.666,1.67h2.789l1.556-1.557h1.686l1.261,1.258h7.782l17.848,1.355h18.277
		c14.81-2.945,23.949-10.896,27.392-23.879c1.791-6.846,2.69-17.395,2.69-31.648C989.947,111.772,989.753,103.918,989.357,98.306z
		 M954.854,131.635c-0.565,7.634-2.442,12.711-5.643,15.235c-1.911,1.461-4.291,2.498-7.156,3.115
		c-2.86,0.618-7.322,1.037-13.381,1.261c-4.324,0.112-11.672,0.17-22.056,0.17c-7.91,0-14.502-0.195-19.777-0.59
		c-9.372-0.674-14.927-4.042-16.667-10.101c-1.176-3.982-1.768-10.856-1.768-20.621c0-9.933,0.703-16.751,2.104-20.454
		c2.021-5.443,7.885-8.417,17.592-8.921c6.512-0.338,14.084-0.506,22.729-0.506c11.388,0,20.224,0.198,26.512,0.589
		c4.656,0.227,8.275,1.052,10.858,2.484c2.58,1.431,4.314,3.576,5.218,6.438c1.177,3.593,1.769,10.13,1.769,19.611
		C955.186,124.51,955.073,128.607,954.854,131.635z"/>
</g>
<g id="CODE">
	<path d="M287.321,265.573h13.464v4.801c0,9.483-0.955,16.272-2.861,20.369c-3.255,6.957-9.569,11.225-18.938,12.793
		c-7.461,1.289-23.035,1.937-46.713,1.937c-24.019,0-39.394-0.927-46.127-2.777c-10.772-3.031-17.506-9.734-20.2-20.115
		c-1.683-6.396-2.525-18.32-2.525-35.771c0-14.759,0.508-25.142,1.518-31.144c1.231-7.406,3.784-13.104,7.654-17.09
		c3.875-4.037,9.205-6.814,15.994-8.33c6.733-1.457,25.338-2.188,55.804-2.188c16.104,0,27.159,0.649,33.164,1.938
		c9.596,2.021,15.938,6.732,19.022,14.143c1.852,4.377,2.915,11.502,3.199,21.379H286.31c0-1.402,0-2.471,0-3.197
		c0-6.565-0.927-11.309-2.779-14.227c-2.356-3.646-8.332-6.004-17.928-7.068c-5.781-0.618-16.694-0.93-32.74-0.93
		c-20.709,0-34.035,0.762-39.983,2.271c-4.997,1.236-8.583,3.564-10.772,6.988c-1.911,2.918-3.115,7.631-3.619,14.141
		c-0.452,6.174-0.674,13.943-0.674,23.314c0,15.209,0.53,25.334,1.599,30.385c1.122,4.994,3.282,8.666,6.482,11.024
		c3.083,2.189,8.217,3.65,15.403,4.38c6.059,0.562,15.685,0.84,28.869,0.84c22.277,0,37.035-0.759,44.273-2.273
		c5.33-1.066,8.95-3.447,10.86-7.152c1.343-2.521,2.021-6.479,2.021-11.867L287.321,265.573L287.321,265.573z"/>
	<path d="M380.81,188.055c26.935,0,43.768,0.926,50.5,2.775c10.775,3.027,17.51,9.736,20.201,20.115
		c1.687,6.397,2.525,18.324,2.525,35.772c0,17.509-0.84,29.459-2.525,35.857c-2.69,10.381-9.425,17.084-20.201,20.114
		c-6.732,1.853-23.818,2.777-51.259,2.777c-27.438,0-44.525-0.928-51.26-2.777c-10.774-3.03-17.508-9.733-20.2-20.114
		c-1.684-6.398-2.523-18.322-2.523-35.771c0-17.511,0.841-29.462,2.523-35.859c2.692-10.379,9.426-17.088,20.2-20.115
		C335.523,188.98,352.863,188.055,380.81,188.055z M379.294,200.088c-23.235,0-37.826,0.762-43.771,2.271
		c-4.994,1.238-8.586,3.565-10.773,6.99c-1.908,2.918-3.111,7.631-3.623,14.141c-0.446,6.172-0.668,13.943-0.668,23.314
		c0,15.207,0.531,25.334,1.597,30.383c1.121,4.994,3.284,8.668,6.479,11.024c3.085,2.188,8.223,3.652,15.407,4.379
		c5.833,0.562,17.868,0.843,36.106,0.843c19.526,0,32.626-0.394,39.307-1.181c9.766-1.18,15.71-5.135,17.848-11.866
		c1.623-5.222,2.438-16.417,2.438-33.583c0-15.264-0.535-25.422-1.597-30.471c-1.127-5.051-3.283-8.726-6.483-11.024
		c-2.976-2.134-8.108-3.535-15.399-4.213C408.638,200.428,396.35,200.088,379.294,200.088z"/>
	<path d="M463.774,304.208v-114.89h89.386c13.301,0,23.062,1.263,29.293,3.785c7.241,2.92,12.511,7.215,15.827,12.879
		c4.995,8.529,7.489,22.107,7.489,40.738c0,18.687-2.494,32.295-7.489,40.822c-3.874,6.564-10.188,11.254-18.939,14.057
		c-5.67,1.74-14.393,2.607-26.18,2.607L463.774,304.208L463.774,304.208z M477.58,292.676h76.677
		c16.214,0,26.627-3.729,31.229-11.191c3.926-6.344,5.892-17.731,5.892-34.174c0-17.729-2.048-29.77-6.144-36.108
		c-4.491-6.904-15.15-10.353-31.984-10.353h-75.67V292.676z"/>
	<path d="M615.508,304.208v-114.89h114.558v11.531H629.311v38.297h96.967v10.939h-96.967v42.59h101.512v11.531L615.508,304.208
		L615.508,304.208z"/>
</g>
</svg>
